# xmcd
#
# Track frame offsets:
#	150
#	16129
#	32795
#	46576
#	61596
#	79025
#	97873
#	111744
#	127674
#	143964
#	161507
#	180421
#	196629
#	214662
#	227604
#	244055
#	258166
#	275587
#
# Disc length: 3834 seconds
#
# Revision: 2
# Processed by: cddbd v1.5.2PL0 Copyright (c) Steve Scherf et al.
# Submitted via: audiograbber 1.83.01
#
DISCID=dd0ef812
DTITLE=Semino Rossi - Einmal Ja - Immer Ja
DYEAR=2007
DGENRE=Schlager
TTITLE0=Lass Meine Arme Dein Zuhause Sein (Neuaufnahme)
TTITLE1=Son Todas Bellas (Rot Sind Die Rosen)
TTITLE2=Una Fiesta Del Amor - Wir Tanzen Por Favor
TTITLE3=Jemand Muß Da Sein
TTITLE4=Fue Como Una Luz
TTITLE5=Gracias Für Deine Liebe
TTITLE6=Baila Conmigo En El Alba
TTITLE7=Einmal Ja Gesagt - Für Immer Ja Gesagt
TTITLE8=Cucurucucu Paloma
TTITLE9=Am Liebsten Bin Ich Nur Bei Dir
TTITLE10=Deine Erste Liebe
TTITLE11=Ich Träume Mit Offenen Augen Von Dir
TTITLE12=(Todo Lo Que Hago) Lo Hago Por Ti
TTITLE13=Nur Mit Dir - Un Poco De Amor
TTITLE14=Niemals Geb Ich Dich Her
TTITLE15=Ay Amor
TTITLE16=Schenk Mir Heute Deine Liebe
TTITLE17=Yira Yira
EXTD=
EXTT0=
EXTT1=
EXTT2=
EXTT3=
EXTT4=
EXTT5=
EXTT6=
EXTT7=
EXTT8=
EXTT9=
EXTT10=
EXTT11=
EXTT12=
EXTT13=
EXTT14=
EXTT15=
EXTT16=
EXTT17=
PLAYORDER=
